<svg width="162.811" height="22" viewBox="0 0 162.81 21.9998" fill="none" xmlns="http://www.w3.org/2000/svg" preserveAspectRatio="xMidYMid meet">
<g id="Group 1">
<path id="Subtract" d="M59.4222 12.5205C56.4647 7.42532 62.7648 4.89296 66.8684 5.8457C69.263 6.40166 70.112 6.90415 71.4534 8.77539C70.7832 9.09565 70.0959 9.45324 69.429 9.78711C67.543 7.34478 62.525 7.02081 61.1194 9.68457C59.8295 12.1302 67.2892 12.8235 68.679 13.2402C70.4866 14.0177 72.084 15.2584 71.8558 17.4756C71.464 21.2798 67.162 22.2924 63.9563 21.9316C60.6712 21.5618 58.6747 20.2108 56.638 17.6914C55.715 19.3104 54.6304 20.3215 52.9378 21.1357C49.9649 22.5658 44.5222 22.3599 42.9925 18.8867C42.5113 17.7956 42.4807 16.5585 42.9085 15.4453C44.6287 11.0288 51.4531 11.6118 54.9954 13.0967C54.9962 12.7513 54.9869 12.4053 54.9661 12.0605C54.6659 7.3301 48.5563 6.59281 45.719 9.96094C45.0387 9.60917 44.4241 9.22032 43.7747 8.81836C45.2327 6.65123 46.9937 5.96628 49.5266 5.70215C52.5789 5.38669 55.9902 6.73601 57.012 9.84375C57.4586 11.2021 57.6142 13.4835 57.2766 14.8926C59.0243 16.9909 61.1197 19.2805 63.8841 19.6914C65.3187 19.9045 67.2305 19.7562 68.4544 18.8906C68.8704 18.5963 69.526 17.9026 69.4886 17.4873C68.9202 13.686 61.1483 15.4943 59.4222 12.5205ZM79.4739 5.70215C81.4444 5.49914 83.9984 6.09847 85.4475 7.54297C87.6064 9.69628 87.2674 12.6041 87.263 15.4189L87.2571 21.6699L84.8313 21.6602L84.8108 19.1133C82.1587 21.917 78.4337 22.8402 74.7757 21.1436C73.5664 20.5826 72.8273 19.4745 72.4378 18.2188C71.603 14.0081 75.2395 12.0328 78.9163 12.0029C81.0555 11.9855 82.7387 12.2959 84.8147 12.7578C84.8191 12.3372 84.8118 11.7789 84.7552 11.3643C84.2696 7.78877 79.5547 7.147 76.9173 8.65039C76.2836 9.01163 76.0118 9.38146 75.5638 9.94531C74.8878 9.6021 74.2133 9.19392 73.5559 8.81152C74.9882 6.59173 76.9779 5.95549 79.4739 5.70215ZM113.016 5.70508C117.844 5.51912 120.697 8.05427 120.562 12.9482C120.54 13.7108 120.561 14.5606 120.56 15.3311L120.542 21.6602L118.133 21.668L118.101 19.1426C115.674 21.8594 111.981 22.7565 108.516 21.2998C107.116 20.7115 106.314 19.5803 105.802 18.1787C105.672 17.4792 105.68 16.7606 105.827 16.0645C106.932 10.8802 114.354 11.9256 118.119 12.7158C118.125 12.3685 118.115 12.0203 118.089 11.6738C117.811 7.92126 113.37 7.16764 110.508 8.53418C109.777 8.88394 109.391 9.3339 108.883 9.95215C108.239 9.56984 107.596 9.18323 106.957 8.79297C107.156 8.50872 107.371 8.23493 107.6 7.97363C109.042 6.34359 110.918 5.82027 113.016 5.70508ZM143.689 5.7002C146.733 5.45626 149.331 6.73827 151.069 9.20117L149.077 10.3887C147.136 7.9303 143.922 7.33977 141.157 8.81348C138.36 10.305 137.577 14.1923 139.158 16.8633C139.927 18.189 141.205 19.1412 142.696 19.499C144.444 19.9216 146.06 19.5579 147.565 18.627C148.231 18.1346 148.609 17.6201 149.095 16.9609L151.137 18.1562C150.975 18.4012 150.805 18.6412 150.626 18.875C147.818 22.5283 142.34 22.987 138.797 20.1621C137.168 18.8471 136.13 16.9367 135.912 14.8545C135.371 9.80905 138.776 6.20427 143.689 5.7002ZM7.04911 5.70312C9.09799 5.49118 11.8374 6.07501 13.3128 7.58887C14.0448 8.35518 14.5594 9.30276 14.804 10.334C15.1446 11.7194 15.0485 13.965 15.0462 15.4482L15.0306 21.6621L12.6302 21.6689L12.6272 19.0811C10.7195 21.205 8.27184 22.1621 5.43095 21.9346C2.95045 21.7359 1.09437 20.8439 0.178017 18.4541C-0.300156 16.392 0.143275 14.3946 2.01786 13.2197C5.07103 11.3067 9.30005 12.0187 12.6214 12.7412C12.6098 12.3257 12.5948 11.9192 12.555 11.5039C12.1934 7.73226 7.22434 7.11317 4.5286 8.68848C3.91706 9.0458 3.62976 9.40414 3.20243 9.96484L1.12431 8.81152C1.31792 8.55523 1.51682 8.30271 1.72099 8.05469C3.13338 6.3601 4.95924 5.89332 7.04911 5.70312ZM159.767 16.5742C161.186 16.3357 162.529 17.2892 162.772 18.7061C163.015 20.1228 162.066 21.4698 160.651 21.7178C159.893 21.8503 159.116 21.6416 158.526 21.1484C157.937 20.6551 157.594 19.9269 157.592 19.1582C157.587 17.8803 158.507 16.7862 159.767 16.5742ZM134.566 6.11035C135.429 6.1024 136.317 6.12712 137.181 6.14062C136.997 6.60392 136.797 7.07305 136.607 7.53516L130.067 21.6797H126.871C125.243 18.1774 123.636 14.6649 122.053 11.1416C121.672 10.3071 120.024 6.8361 119.832 6.14453C120.675 6.10862 121.647 6.12003 122.5 6.11133C124.271 10.3846 126.559 15.34 128.499 19.5615C129.15 18.3428 130.028 16.2315 130.63 14.8955L134.566 6.11035ZM97.5276 5.70508C102.028 5.74004 104.468 8.37114 104.558 12.8691C104.617 15.7954 104.571 18.7364 104.564 21.6641L102.087 21.6689C102.097 19.2172 102.437 12.9458 101.727 10.9248C101.332 9.80138 100.598 8.88743 99.513 8.37305C97.9594 7.63741 96.0849 7.85879 94.5237 8.43164C93.9576 8.71591 93.5178 8.96063 93.0638 9.40723C92.4269 10.0296 91.9708 10.8139 91.7454 11.6758C91.4613 12.7637 91.5563 14.9322 91.5628 16.1113L91.5696 21.6611L89.1165 21.6572C88.9859 16.7316 89.0975 11.0583 89.1204 6.10254L91.5716 6.11621L91.5813 8.6377C93.2036 6.49256 94.882 5.8612 97.5276 5.70508ZM28.7542 8.73145C32.1723 4.16681 40.2632 4.63745 41.5716 10.5732C42.1723 13.299 41.8417 18.6783 41.8304 21.6592L39.3636 21.668C39.2904 19.0213 39.3628 16.0752 39.3479 13.3984C39.3402 11.8792 39.1452 10.4253 38.0452 9.28613C36.0989 7.27087 32.112 7.53974 30.2073 9.44434C29.5916 10.0674 29.1576 10.8469 28.9515 11.6982C28.617 13.0292 28.762 19.9603 28.763 21.6611L26.3304 21.666L26.3382 0.00195312L28.764 0.000976562L28.7542 8.73145ZM155.348 6.13477C155.456 11.1587 155.363 16.6207 155.359 21.665L152.864 21.667C152.84 16.484 152.841 11.301 152.868 6.11816L155.348 6.13477ZM24.2171 6.11133C24.2424 11.2936 24.2391 16.4759 24.2073 21.6582L21.7386 21.666C21.7564 16.5975 21.6257 11.1776 21.7727 6.14355L24.2171 6.11133ZM19.4886 21.6611L17.0198 21.6631C16.9091 14.5594 17.0183 7.13121 17.0218 0.00292969L19.4993 0L19.4886 21.6611ZM12.6565 14.7285C10.4401 14.338 7.96685 13.9762 5.71903 14.1787C4.60286 14.3827 3.43087 14.6813 2.7454 15.6758C1.90111 16.9007 2.59942 18.4794 3.81474 19.1396C5.43586 20.0204 7.35012 19.8806 9.0579 19.3535C11.3226 18.5336 12.4993 17.1473 12.6565 14.7285ZM118.143 14.7344C116.279 14.3523 113.412 13.9931 111.524 14.1836C105.71 15.0002 107.766 21.2426 114.517 19.4268C116.794 18.5146 118.088 17.2829 118.143 14.7344ZM84.8479 14.7285C82.651 14.3713 80.2777 13.9594 78.0393 14.1748C72.1428 15.2129 74.5053 21.3306 81.3929 19.3633C83.582 18.532 84.7761 17.0887 84.8479 14.7285ZM48.7737 14.1914C47.6125 14.3322 46.3408 14.5623 45.5716 15.5518C45.1666 16.07 45.0021 16.7369 45.1204 17.3838C45.5502 19.7245 48.7308 20.0122 50.6009 19.5801C50.7105 19.5545 50.8197 19.5268 50.928 19.4961C52.4446 19.0153 53.585 18.412 54.3567 16.9326C54.5555 16.5479 54.7215 16.1465 54.8518 15.7334C53.1631 14.5815 50.7917 14.0811 48.7737 14.1914ZM153.513 0.367188C154.397 0.0751981 155.349 0.559354 155.633 1.44531C155.917 2.33143 155.424 3.2788 154.535 3.55469C153.658 3.82707 152.726 3.34226 152.446 2.46777C152.165 1.59322 152.641 0.655748 153.513 0.367188ZM22.3724 0.396484C23.2257 0.0613115 24.1891 0.48078 24.5247 1.33398C24.8603 2.18712 24.4411 3.15132 23.5882 3.4873C22.7345 3.8235 21.7698 3.40357 21.4339 2.5498C21.0981 1.69602 21.5185 0.731924 22.3724 0.396484Z" fill="white"/>
</g>
</svg>
